<?xml version="1.0" standalone="no"?>
<!DOCTYPE svg PUBLIC "-//W3C//DTD SVG 20010904//EN"
 "http://www.w3.org/TR/2001/REC-SVG-20010904/DTD/svg10.dtd">
<svg version="1.0" xmlns="http://www.w3.org/2000/svg"
 width="474.000000pt" height="130.000000pt" viewBox="0 0 474.000000 130.000000"
 preserveAspectRatio="xMidYMid meet">

<g transform="translate(0.000000,130.000000) scale(0.100000,-0.100000)"
fill="#000000" stroke="none">
<path d="M748 1290 c-195 -31 -408 -130 -513 -240 -16 -16 -35 -30 -42 -30 -7
0 -13 -8 -13 -19 0 -10 -7 -24 -14 -31 -8 -6 -23 -32 -32 -56 -11 -30 -27 -50
-47 -60 -25 -13 -28 -20 -23 -45 4 -21 0 -34 -16 -48 l-21 -20 49 -31 c27 -17
66 -33 87 -37 45 -7 44 -21 -3 -37 -74 -26 -114 -52 -137 -88 l-23 -38 35 -14
c19 -8 35 -22 35 -30 0 -9 15 -23 32 -33 l33 -18 -55 -5 c-54 -5 -69 -18 -33
-31 10 -3 30 0 45 7 15 8 41 14 57 14 24 0 29 -3 24 -17 -4 -11 -8 -12 -11 -5
-7 23 -37 11 -65 -26 -28 -37 -31 -59 -12 -107 l8 -20 -17 20 c-17 20 -17 19
-13 -8 3 -19 1 -27 -8 -23 -8 3 -16 -18 -24 -64 -11 -59 -10 -72 4 -99 21 -41
31 -39 39 9 11 69 45 148 67 155 11 4 19 13 17 21 -2 8 -7 14 -13 12 -5 -2 -9
-7 -7 -13 2 -5 -2 -4 -9 2 -10 11 -10 15 4 25 9 7 21 27 28 43 l12 30 7 -31
c7 -31 47 -104 57 -104 7 0 93 91 111 118 8 12 12 25 9 28 -3 3 -13 -8 -22
-26 -9 -17 -27 -35 -41 -40 -49 -19 -54 -15 -54 51 0 57 2 63 35 91 19 17 32
35 29 40 -7 11 7 10 26 -2 12 -8 12 -10 -3 -15 -19 -8 -17 -50 2 -50 7 0 18
-7 24 -16 12 -15 18 -19 35 -19 5 0 16 -32 25 -71 31 -128 99 -238 170 -276
16 -8 36 -12 44 -9 11 5 7 12 -17 33 -56 46 -108 152 -125 250 -6 38 -5 42 17
45 31 4 34 36 8 88 -12 23 -20 43 -18 44 2 2 37 22 78 45 163 93 326 233 402
344 107 158 135 320 65 385 -50 47 -176 70 -289 52z m156 -54 c18 -7 43 -26
55 -42 21 -26 23 -37 19 -102 -10 -157 -138 -336 -338 -472 -52 -36 -63 -39
-82 -29 -22 12 -22 12 12 40 28 24 32 31 21 41 -10 11 -16 9 -27 -8 -13 -19
-19 -20 -82 -12 -68 9 -93 20 -73 32 6 4 11 2 11 -3 0 -15 43 -14 60 2 12 10
12 9 1 -5 -11 -15 -11 -18 1 -18 8 0 20 6 27 13 11 10 13 9 7 -1 -5 -8 -1 -11
11 -9 40 6 44 16 38 88 -6 75 -9 71 60 81 11 2 21 11 23 21 4 20 -33 37 -84
37 l-35 0 21 30 c14 20 30 30 46 30 30 0 73 21 95 46 17 20 25 94 10 94 -5 0
-25 16 -44 35 -42 42 -74 45 -106 11 -19 -20 -22 -31 -17 -60 4 -20 3 -36 -2
-36 -5 0 -25 -11 -45 -24 -19 -13 -50 -26 -69 -28 -18 -1 -38 -10 -45 -18 -10
-13 -12 -11 -13 13 0 16 4 26 10 22 6 -3 10 -1 10 4 0 6 -7 11 -15 11 -10 0
-15 -10 -15 -34 0 -21 -6 -36 -15 -40 -8 -3 -15 -1 -15 5 0 6 -5 7 -10 4 -5
-3 -10 1 -10 9 0 20 17 30 23 14 3 -7 6 -3 6 9 1 24 62 77 161 141 151 97 329
144 414 108z m-251 -113 c9 -9 17 -22 17 -29 0 -7 8 -17 17 -22 15 -9 14 -12
-10 -34 l-27 -25 28 4 27 4 -30 -25 c-16 -14 -35 -24 -42 -21 -7 2 -15 0 -18
-5 -6 -9 -123 -5 -133 4 -3 3 3 6 14 7 14 1 13 3 -6 8 l-25 7 34 17 c41 21 42
21 35 2 -5 -11 1 -15 26 -15 52 0 70 15 70 60 0 21 -4 41 -9 44 -4 3 -6 -5 -4
-17 5 -26 -10 -42 -47 -50 -23 -6 -23 -5 2 5 l27 12 -22 11 c-27 13 -32 61 -8
75 20 12 60 4 84 -17z m-415 -133 c39 -24 74 -78 67 -105 -4 -17 -3 -16 6 3 7
12 16 22 21 22 4 0 8 6 8 13 1 14 36 41 68 51 16 6 22 3 22 -8 0 -9 -5 -16
-11 -16 -8 0 -7 -6 2 -17 13 -15 12 -16 -8 -11 -25 7 -30 -6 -13 -32 8 -13 10
-13 10 1 0 9 7 20 16 23 8 3 13 10 10 15 -7 11 3 41 14 41 10 0 0 -100 -13
-125 -9 -17 -8 -18 4 -9 27 23 113 45 146 39 36 -7 45 -25 12 -25 -11 0 -27
-7 -36 -16 -9 -8 -21 -13 -28 -10 -7 2 -21 -4 -31 -15 -19 -21 -20 -20 18 -36
36 -16 52 -93 18 -93 -5 0 -21 11 -37 23 -33 28 -79 42 -88 26 -4 -6 -18 -8
-32 -4 -18 4 -23 2 -17 -6 4 -7 3 -9 -4 -5 -6 3 -9 22 -7 41 2 19 0 33 -5 30
-4 -2 -5 6 -3 18 3 15 -3 29 -18 42 l-22 20 6 -23 c4 -17 2 -21 -6 -14 -7 6
-22 12 -35 14 -18 2 -29 17 -49 63 -30 72 -38 105 -27 105 5 0 24 -9 42 -20z
m263 -90 l24 -19 -32 -1 c-26 0 -33 4 -33 20 0 25 11 25 41 0z m-271 -35 c0
-9 -6 -12 -15 -9 -8 4 -12 10 -9 15 8 14 24 10 24 -6z m-9 -21 c65 -19 112
-51 102 -67 -16 -25 -13 -46 5 -41 9 3 4 -2 -12 -11 -15 -9 -42 -32 -58 -51
-17 -19 -35 -34 -40 -34 -16 0 -3 78 16 99 15 16 12 19 -42 36 -31 10 -61 18
-66 16 -20 -5 -56 10 -56 24 0 20 39 45 70 45 15 0 51 -7 81 -16z m116 -36
c-3 -8 -6 -5 -6 6 -1 11 2 17 5 13 3 -3 4 -12 1 -19z m211 -17 c3 -8 -1 -12
-9 -9 -7 2 -15 10 -17 17 -3 8 1 12 9 9 7 -2 15 -10 17 -17z m-334 -40 c18 -7
18 -8 3 -14 -9 -3 -17 -2 -17 3 0 14 -64 12 -79 -2 -11 -10 -13 -10 -7 0 8 14
-3 16 -24 3 -8 -6 -18 -7 -23 -4 -31 19 102 32 147 14z m167 -72 c27 -29 53
-94 44 -109 -3 -4 12 1 32 11 44 23 63 24 88 5 18 -13 18 -16 5 -42 -19 -35
-69 -66 -95 -58 -18 5 -17 4 3 -11 26 -19 62 -85 62 -115 0 -16 -6 -20 -30
-20 -32 0 -133 41 -144 59 -4 6 -11 9 -15 7 -4 -3 -8 1 -8 9 0 8 4 16 9 16 4
1 12 2 17 3 5 0 13 5 18 10 5 5 3 6 -5 2 -14 -8 -12 19 2 43 7 11 5 13 -8 8
-9 -4 -27 0 -40 8 -20 13 -23 13 -23 0 0 -8 4 -15 9 -15 5 0 6 -5 3 -10 -4 -6
-12 -7 -18 -3 -9 5 -9 3 0 -8 10 -12 6 -19 -20 -40 -32 -26 -34 -26 -87 -12
-64 16 -100 37 -100 58 0 40 150 96 171 64 8 -12 12 -11 22 3 13 16 15 16 33
0 12 -11 11 -8 -3 8 -19 22 -21 32 -14 80 4 31 10 61 15 68 13 21 47 13 77
-19z m-101 -23 c0 -2 -9 -6 -20 -9 -11 -3 -18 -1 -14 4 5 9 34 13 34 5z m-29
-47 c17 -14 20 -22 12 -25 -7 -3 -13 -10 -13 -15 0 -6 5 -7 10 -4 6 3 10 -2
10 -11 0 -14 -3 -15 -12 -6 -7 7 -30 12 -52 12 -38 1 -110 29 -76 30 13 0 13
1 0 10 -12 7 -10 11 10 19 41 16 86 12 111 -10z m-131 -51 c19 2 32 1 29 -2
-4 -4 -21 -9 -38 -11 -17 -2 -39 -11 -47 -20 -9 -8 -20 -12 -25 -9 -6 3 0 14
11 24 13 11 19 25 15 32 -3 7 0 6 7 -3 9 -11 24 -15 48 -11z m130 -314 c0 -8
-5 -12 -10 -9 -6 4 -8 11 -5 16 9 14 15 11 15 -7z"/>
<path d="M371 924 c0 -11 3 -14 6 -6 3 7 2 16 -1 19 -3 4 -6 -2 -5 -13z"/>
<path d="M400 860 c0 -5 5 -10 11 -10 5 0 7 5 4 10 -3 6 -8 10 -11 10 -2 0 -4
-4 -4 -10z"/>
<path d="M361 844 c0 -11 3 -14 6 -6 3 7 2 16 -1 19 -3 4 -6 -2 -5 -13z"/>
<path d="M390 815 c0 -8 -4 -15 -10 -15 -16 0 -12 -30 5 -36 8 -4 15 -10 15
-16 0 -5 -4 -6 -10 -3 -5 3 -10 1 -10 -4 0 -14 6 -14 31 0 11 5 17 14 14 19
-4 6 2 7 12 3 15 -6 16 -5 5 9 -11 14 -10 16 10 12 13 -2 16 -1 8 3 -8 3 -19
12 -25 18 -17 20 -45 26 -45 10z m40 -10 c0 -2 -9 -9 -20 -15 -16 -9 -18 -8
-14 5 5 13 34 22 34 10z"/>
<path d="M270 775 c6 -16 5 -25 -3 -28 -6 -2 -2 -6 10 -9 25 -7 41 19 18 29
-11 3 -12 9 -6 17 7 8 4 12 -9 13 -16 1 -18 -2 -10 -22z"/>
<path d="M342 546 c-2 -36 1 -44 15 -42 10 0 17 -5 15 -13 -3 -16 16 -41 32
-41 6 0 3 5 -6 11 -21 11 -24 30 -5 25 6 -1 9 -1 5 1 -4 3 -1 17 7 32 12 24
12 28 0 28 -8 0 -12 -4 -9 -9 3 -4 1 -8 -5 -8 -5 0 -16 -3 -25 -6 -12 -5 -14
1 -9 30 3 21 1 36 -4 36 -5 0 -11 -20 -11 -44z"/>
<path d="M321 564 c0 -11 3 -14 6 -6 3 7 2 16 -1 19 -3 4 -6 -2 -5 -13z"/>
<path d="M425 521 c-3 -5 -2 -12 3 -15 5 -3 9 1 9 9 0 17 -3 19 -12 6z"/>
<path d="M3611 1289 c-192 -16 -369 -58 -486 -117 -178 -88 -355 -269 -355
-362 0 -26 45 -80 67 -80 8 0 13 12 13 28 0 42 61 160 118 228 90 109 244 194
412 227 135 28 243 30 468 12 117 -10 215 -15 218 -12 11 10 -7 47 -30 63 -30
19 -265 26 -425 13z"/>
<path d="M3375 1123 c-129 -163 -338 -499 -435 -699 -103 -210 -134 -341 -93
-386 16 -18 18 -14 40 64 59 205 271 573 536 931 48 64 87 121 87 126 0 12
-26 21 -61 21 -23 0 -38 -11 -74 -57z"/>
<path d="M2192 974 c-28 -19 -37 -34 -195 -307 -153 -265 -210 -348 -287 -421
-67 -64 -111 -86 -170 -86 -52 0 -76 13 -95 50 -40 78 4 200 111 308 52 52 68
62 97 62 19 0 40 -7 47 -15 19 -23 4 -80 -32 -121 -40 -45 -30 -54 15 -14 59
52 72 134 27 175 -28 26 -93 30 -145 11 -58 -23 -151 -123 -195 -209 -38 -77
-124 -188 -171 -223 -33 -24 -73 -31 -84 -15 -8 15 30 108 79 191 24 41 42 78
39 83 -8 14 -63 7 -80 -11 -10 -9 -40 -57 -67 -105 -62 -110 -115 -167 -155
-167 -42 0 -55 21 -48 82 12 98 101 252 179 308 69 50 128 32 128 -39 0 -19 4
-30 10 -26 6 3 10 24 10 46 0 31 -7 47 -29 70 -101 101 -328 -77 -376 -295
-14 -60 -14 -78 -3 -111 27 -82 124 -92 197 -21 43 42 51 44 51 12 0 -31 34
-56 76 -56 44 0 116 52 169 122 l45 60 0 -33 c0 -48 37 -117 73 -135 16 -9 56
-19 87 -21 73 -7 130 18 207 89 l57 53 -32 -57 c-18 -32 -32 -62 -32 -68 0 -5
18 -10 40 -10 38 0 41 3 71 55 l31 56 17 -33 c19 -38 89 -78 136 -78 72 1 163
54 223 130 l38 47 12 -50 c39 -163 221 -181 371 -37 73 70 187 230 163 230 -4
0 -32 -34 -61 -75 -64 -89 -157 -180 -205 -200 -47 -20 -101 -19 -133 2 -28
19 -53 68 -53 107 0 21 6 25 47 31 161 24 294 197 222 289 -63 80 -238 -23
-327 -193 -52 -99 -111 -171 -176 -213 -49 -31 -68 -38 -110 -38 -70 0 -116
31 -116 77 0 19 18 32 101 73 154 78 249 175 249 256 0 33 -5 46 -22 58 -46
32 -122 10 -177 -52 l-23 -27 25 43 c18 32 42 54 93 83 114 66 168 133 180
220 5 36 2 49 -16 72 -25 31 -72 37 -108 11z m96 -84 c4 -49 -43 -117 -115
-167 -83 -57 -87 -59 -75 -37 44 82 117 203 135 222 29 32 51 25 55 -18z
m-101 -296 c8 -21 -14 -61 -61 -107 -39 -40 -216 -160 -224 -152 -7 6 88 145
133 194 67 73 137 104 152 65z m427 -29 c10 -27 -24 -108 -62 -147 -19 -21
-55 -47 -79 -58 -42 -20 -113 -27 -113 -12 0 19 66 109 123 168 51 51 69 64
94 64 18 0 33 -6 37 -15z"/>
<path d="M3973 948 c-5 -7 -27 -41 -47 -75 l-37 -63 -55 0 c-30 0 -54 -4 -54
-10 0 -5 20 -10 45 -10 25 0 45 -4 45 -8 0 -9 -150 -274 -220 -387 -90 -147
-175 -235 -229 -235 -16 0 -21 6 -21 28 1 37 22 80 134 272 53 92 92 168 87
173 -5 5 -23 7 -41 5 -31 -3 -39 -13 -130 -162 -140 -232 -214 -316 -276 -316
-50 0 -26 63 117 307 60 101 88 158 81 165 -5 5 -25 8 -43 6 -33 -3 -38 -10
-122 -158 -90 -160 -127 -243 -127 -285 0 -37 33 -65 78 -65 43 0 68 15 132
76 l46 44 -4 -41 c-11 -108 114 -108 211 1 l42 47 -4 -44 c-10 -131 136 -106
248 43 l51 67 0 -45 c0 -30 8 -56 23 -79 26 -40 97 -79 143 -79 40 0 107 23
145 51 l30 21 33 -38 c34 -39 34 -39 108 -38 89 0 141 26 208 101 39 45 170
235 170 247 0 22 -25 -8 -84 -98 -37 -57 -88 -123 -112 -147 l-45 -44 28 60
c26 56 28 70 31 218 l4 158 34 14 c36 15 40 25 24 56 -12 21 -50 25 -80 9 -25
-13 -60 -72 -60 -101 0 -13 -33 -73 -73 -134 -55 -84 -82 -115 -113 -133 -27
-14 -46 -34 -54 -55 -18 -44 -38 -66 -82 -88 -54 -27 -110 -25 -147 7 -31 26
-60 100 -44 114 4 4 33 13 63 19 135 28 251 168 218 262 -19 56 -83 65 -166
23 -63 -31 -125 -98 -175 -190 -80 -147 -179 -254 -234 -254 -31 0 -35 12 -18
61 13 35 237 441 302 547 12 19 22 22 78 22 35 0 67 5 70 10 4 6 -18 10 -59
10 l-65 0 40 67 c21 37 39 71 39 75 0 13 -77 9 -87 -4z m250 -413 c-6 -91
-103 -183 -204 -193 l-51 -5 17 34 c24 47 110 154 148 184 21 17 42 24 62 23
28 -3 30 -5 28 -43z m248 -171 c-6 -47 -19 -105 -30 -129 -32 -73 -115 -107
-169 -69 -31 21 -27 43 14 87 33 36 39 38 75 32 45 -8 51 4 16 32 l-23 18 60
93 61 92 3 -36 c2 -19 -1 -74 -7 -120z"/>
<path d="M42 357 c-6 -6 -13 -34 -16 -62 l-5 -50 10 45 c6 25 17 50 25 57 9 6
11 14 6 17 -5 3 -14 0 -20 -7z"/>
<path d="M162 256 c7 -8 15 -12 17 -11 5 6 -10 25 -20 25 -5 0 -4 -6 3 -14z"/>
<path d="M170 223 c0 -5 -10 -15 -22 -21 -13 -6 -18 -11 -12 -11 16 -1 50 27
41 35 -4 4 -7 3 -7 -3z"/>
</g>
</svg>
